<svg width="28" height="21" viewBox="0 0 28 21" fill="none" xmlns="http://www.w3.org/2000/svg">
<path d="M25.6667 0H8.16667C7.36167 0 6.72583 0.408333 6.30583 1.02667L0 10.4942L6.30583 19.9617C6.72583 20.58 7.36167 21 8.16667 21H25.6667C26.9558 21 28 19.9558 28 18.6667V2.33333C28 1.04417 26.9558 0 25.6667 0ZM22.1667 14.6825L20.5158 16.3333L16.3333 12.1508L12.1508 16.3333L10.5 14.6825L14.6825 10.5L10.5 6.3175L12.1508 4.66667L16.3333 8.84917L20.5158 4.66667L22.1667 6.3175L17.9842 10.5L22.1667 14.6825Z" fill="white"/>
</svg>
