<svg width="22" height="20" viewBox="0 0 22 20" fill="none" xmlns="http://www.w3.org/2000/svg">
<path d="M17.853 0.353675C17.6038 0.127217 17.2658 0 16.9135 0C16.5611 0 16.2232 0.127217 15.974 0.353675L14.095 2.06294L19.732 7.18713L21.6109 5.47907C21.8601 5.25254 22 4.94534 22 4.62504C22 4.30473 21.8601 3.99753 21.6109 3.771L17.853 0.353675ZM17.853 8.8964L12.2147 3.771L0.388022 14.5219C0.139611 14.7483 7.47313e-05 15.055 0 15.3747V18.792C0 19.1124 0.140003 19.4197 0.389209 19.6462C0.638415 19.8727 0.97641 20 1.32884 20H5.0868C5.4392 19.9999 5.77714 19.8726 6.02629 19.6461L17.853 8.89519V8.8964Z" fill="white"/>
</svg>
