<svg width="25" height="25" viewBox="0 0 25 25" fill="none" xmlns="http://www.w3.org/2000/svg">
<path d="M1.25 22.5H23.75C24.0815 22.5 24.3995 22.6317 24.6339 22.8661C24.8683 23.1005 25 23.4185 25 23.75C25 24.0815 24.8683 24.3995 24.6339 24.6339C24.3995 24.8683 24.0815 25 23.75 25H1.25C0.918479 25 0.600536 24.8683 0.366116 24.6339C0.131695 24.3995 0 24.0815 0 23.75C0 23.4185 0.131695 23.1005 0.366116 22.8661C0.600536 22.6317 0.918479 22.5 1.25 22.5ZM3.75 0H21.25C22.2446 0 23.1984 0.395088 23.9017 1.09835C24.6049 1.80161 25 2.75544 25 3.75V16.25C25 17.2446 24.6049 18.1984 23.9017 18.9017C23.1984 19.6049 22.2446 20 21.25 20H3.75C2.75544 20 1.80161 19.6049 1.09835 18.9017C0.395088 18.1984 0 17.2446 0 16.25V3.75C0 2.75544 0.395088 1.80161 1.09835 1.09835C1.80161 0.395088 2.75544 0 3.75 0ZM2.5 16.25C2.5 16.5815 2.6317 16.8995 2.86612 17.1339C3.10054 17.3683 3.41848 17.5 3.75 17.5H21.25C21.5815 17.5 21.8995 17.3683 22.1339 17.1339C22.3683 16.8995 22.5 16.5815 22.5 16.25V3.75C22.5 3.41848 22.3683 3.10054 22.1339 2.86612C21.8995 2.6317 21.5815 2.5 21.25 2.5H3.75C3.41848 2.5 3.10054 2.6317 2.86612 2.86612C2.6317 3.10054 2.5 3.41848 2.5 3.75V16.25Z" fill="white"/>
</svg>
